<mxfile host="Electron" agent="Mozilla/5.0 (Windows NT 10.0; Win64; x64) AppleWebKit/537.36 (KHTML, like Gecko) draw.io/24.7.5 Chrome/126.0.6478.183 Electron/31.3.0 Safari/537.36" version="24.7.5">
  <diagram name="Page-1" id="xwE9w0ND5p_MPtP_wjFy">
    <mxGraphModel dx="1927" dy="1035" grid="1" gridSize="10" guides="1" tooltips="1" connect="1" arrows="1" fold="1" page="1" pageScale="1" pageWidth="850" pageHeight="1100" math="0" shadow="0">
      <root>
        <mxCell id="0" />
        <mxCell id="1" parent="0" />
        <mxCell id="L9grCcNbEWZBXhojrE6Y-1" value="STAFF" style="whiteSpace=wrap;html=1;align=center;" vertex="1" parent="1">
          <mxGeometry x="280" y="210" width="100" height="40" as="geometry" />
        </mxCell>
        <mxCell id="L9grCcNbEWZBXhojrE6Y-4" value="" style="endArrow=none;html=1;rounded=0;entryX=0.166;entryY=0.09;entryDx=0;entryDy=0;entryPerimeter=0;" edge="1" parent="1" source="L9grCcNbEWZBXhojrE6Y-5" target="L9grCcNbEWZBXhojrE6Y-1">
          <mxGeometry relative="1" as="geometry">
            <mxPoint x="270" y="110" as="sourcePoint" />
            <mxPoint x="310" y="320" as="targetPoint" />
          </mxGeometry>
        </mxCell>
        <mxCell id="L9grCcNbEWZBXhojrE6Y-6" value="StaffId" style="ellipse;whiteSpace=wrap;html=1;align=center;fontStyle=4;" vertex="1" parent="1">
          <mxGeometry x="350" y="135" width="100" height="40" as="geometry" />
        </mxCell>
        <mxCell id="L9grCcNbEWZBXhojrE6Y-5" value="Name" style="ellipse;whiteSpace=wrap;html=1;align=center;" vertex="1" parent="1">
          <mxGeometry x="230" y="130" width="100" height="50" as="geometry" />
        </mxCell>
        <mxCell id="L9grCcNbEWZBXhojrE6Y-8" value="" style="endArrow=none;html=1;rounded=0;entryX=0.438;entryY=0.03;entryDx=0;entryDy=0;entryPerimeter=0;exitX=0.25;exitY=0.945;exitDx=0;exitDy=0;exitPerimeter=0;" edge="1" parent="1" source="L9grCcNbEWZBXhojrE6Y-6" target="L9grCcNbEWZBXhojrE6Y-1">
          <mxGeometry relative="1" as="geometry">
            <mxPoint x="297" y="190" as="sourcePoint" />
            <mxPoint x="307" y="224" as="targetPoint" />
          </mxGeometry>
        </mxCell>
        <mxCell id="L9grCcNbEWZBXhojrE6Y-9" value="Role" style="ellipse;whiteSpace=wrap;html=1;align=center;" vertex="1" parent="1">
          <mxGeometry x="150" y="190" width="100" height="50" as="geometry" />
        </mxCell>
        <mxCell id="L9grCcNbEWZBXhojrE6Y-10" value="" style="endArrow=none;html=1;rounded=0;entryX=0.166;entryY=0.09;entryDx=0;entryDy=0;entryPerimeter=0;" edge="1" source="L9grCcNbEWZBXhojrE6Y-9" parent="1">
          <mxGeometry relative="1" as="geometry">
            <mxPoint x="250" y="140" as="sourcePoint" />
            <mxPoint x="277" y="244" as="targetPoint" />
          </mxGeometry>
        </mxCell>
        <mxCell id="L9grCcNbEWZBXhojrE6Y-11" value="Email" style="ellipse;whiteSpace=wrap;html=1;align=center;" vertex="1" parent="1">
          <mxGeometry x="220" y="290" width="100" height="50" as="geometry" />
        </mxCell>
        <mxCell id="L9grCcNbEWZBXhojrE6Y-12" value="" style="endArrow=none;html=1;rounded=0;entryX=0.5;entryY=0;entryDx=0;entryDy=0;exitX=0.07;exitY=1.07;exitDx=0;exitDy=0;exitPerimeter=0;" edge="1" parent="1" source="L9grCcNbEWZBXhojrE6Y-1" target="L9grCcNbEWZBXhojrE6Y-11">
          <mxGeometry relative="1" as="geometry">
            <mxPoint x="297" y="190" as="sourcePoint" />
            <mxPoint x="307" y="224" as="targetPoint" />
          </mxGeometry>
        </mxCell>
        <mxCell id="L9grCcNbEWZBXhojrE6Y-13" value="" style="endArrow=none;html=1;rounded=0;entryX=0.5;entryY=0;entryDx=0;entryDy=0;exitX=0.07;exitY=1.07;exitDx=0;exitDy=0;exitPerimeter=0;" edge="1" target="L9grCcNbEWZBXhojrE6Y-14" parent="1">
          <mxGeometry relative="1" as="geometry">
            <mxPoint x="367" y="253" as="sourcePoint" />
            <mxPoint x="387" y="224" as="targetPoint" />
          </mxGeometry>
        </mxCell>
        <mxCell id="L9grCcNbEWZBXhojrE6Y-14" value="Password" style="ellipse;whiteSpace=wrap;html=1;align=center;" vertex="1" parent="1">
          <mxGeometry x="340" y="290" width="100" height="50" as="geometry" />
        </mxCell>
        <mxCell id="L9grCcNbEWZBXhojrE6Y-15" value="Takes" style="shape=rhombus;perimeter=rhombusPerimeter;whiteSpace=wrap;html=1;align=center;" vertex="1" parent="1">
          <mxGeometry x="450" y="200" width="120" height="60" as="geometry" />
        </mxCell>
        <mxCell id="L9grCcNbEWZBXhojrE6Y-16" value="Appointment" style="whiteSpace=wrap;html=1;align=center;" vertex="1" parent="1">
          <mxGeometry x="680" y="220" width="100" height="40" as="geometry" />
        </mxCell>
        <mxCell id="L9grCcNbEWZBXhojrE6Y-17" value="" style="endArrow=none;html=1;rounded=0;entryX=0.166;entryY=0.09;entryDx=0;entryDy=0;entryPerimeter=0;" edge="1" source="L9grCcNbEWZBXhojrE6Y-19" target="L9grCcNbEWZBXhojrE6Y-16" parent="1">
          <mxGeometry relative="1" as="geometry">
            <mxPoint x="670" y="120" as="sourcePoint" />
            <mxPoint x="710" y="330" as="targetPoint" />
          </mxGeometry>
        </mxCell>
        <mxCell id="L9grCcNbEWZBXhojrE6Y-18" value="AppointmentId" style="ellipse;whiteSpace=wrap;html=1;align=center;fontStyle=4;" vertex="1" parent="1">
          <mxGeometry x="750" y="145" width="100" height="40" as="geometry" />
        </mxCell>
        <mxCell id="L9grCcNbEWZBXhojrE6Y-19" value="Date&amp;nbsp;" style="ellipse;whiteSpace=wrap;html=1;align=center;" vertex="1" parent="1">
          <mxGeometry x="630" y="140" width="100" height="50" as="geometry" />
        </mxCell>
        <mxCell id="L9grCcNbEWZBXhojrE6Y-20" value="" style="endArrow=none;html=1;rounded=0;entryX=0.438;entryY=0.03;entryDx=0;entryDy=0;entryPerimeter=0;exitX=0.25;exitY=0.945;exitDx=0;exitDy=0;exitPerimeter=0;" edge="1" source="L9grCcNbEWZBXhojrE6Y-18" target="L9grCcNbEWZBXhojrE6Y-16" parent="1">
          <mxGeometry relative="1" as="geometry">
            <mxPoint x="697" y="200" as="sourcePoint" />
            <mxPoint x="707" y="234" as="targetPoint" />
          </mxGeometry>
        </mxCell>
        <mxCell id="L9grCcNbEWZBXhojrE6Y-22" value="Time" style="ellipse;whiteSpace=wrap;html=1;align=center;" vertex="1" parent="1">
          <mxGeometry x="620" y="300" width="100" height="50" as="geometry" />
        </mxCell>
        <mxCell id="L9grCcNbEWZBXhojrE6Y-23" value="" style="endArrow=none;html=1;rounded=0;entryX=0.5;entryY=0;entryDx=0;entryDy=0;exitX=0.07;exitY=1.07;exitDx=0;exitDy=0;exitPerimeter=0;" edge="1" source="L9grCcNbEWZBXhojrE6Y-16" target="L9grCcNbEWZBXhojrE6Y-22" parent="1">
          <mxGeometry relative="1" as="geometry">
            <mxPoint x="697" y="200" as="sourcePoint" />
            <mxPoint x="707" y="234" as="targetPoint" />
          </mxGeometry>
        </mxCell>
        <mxCell id="L9grCcNbEWZBXhojrE6Y-24" value="" style="endArrow=none;html=1;rounded=0;entryX=0.5;entryY=0;entryDx=0;entryDy=0;exitX=0.07;exitY=1.07;exitDx=0;exitDy=0;exitPerimeter=0;" edge="1" target="L9grCcNbEWZBXhojrE6Y-25" parent="1">
          <mxGeometry relative="1" as="geometry">
            <mxPoint x="767" y="263" as="sourcePoint" />
            <mxPoint x="787" y="234" as="targetPoint" />
          </mxGeometry>
        </mxCell>
        <mxCell id="L9grCcNbEWZBXhojrE6Y-25" value="DoctorID" style="ellipse;whiteSpace=wrap;html=1;align=center;" vertex="1" parent="1">
          <mxGeometry x="740" y="300" width="100" height="50" as="geometry" />
        </mxCell>
        <mxCell id="L9grCcNbEWZBXhojrE6Y-26" value="PatientID" style="ellipse;whiteSpace=wrap;html=1;align=center;" vertex="1" parent="1">
          <mxGeometry x="690" y="380" width="100" height="40" as="geometry" />
        </mxCell>
        <mxCell id="L9grCcNbEWZBXhojrE6Y-27" value="" style="endArrow=none;html=1;rounded=0;exitX=0.5;exitY=1;exitDx=0;exitDy=0;entryX=0.5;entryY=0;entryDx=0;entryDy=0;" edge="1" target="L9grCcNbEWZBXhojrE6Y-26" parent="1" source="L9grCcNbEWZBXhojrE6Y-16">
          <mxGeometry relative="1" as="geometry">
            <mxPoint x="777" y="240" as="sourcePoint" />
            <mxPoint x="730" y="370" as="targetPoint" />
          </mxGeometry>
        </mxCell>
        <mxCell id="L9grCcNbEWZBXhojrE6Y-28" value="" style="endArrow=none;html=1;rounded=0;entryX=0.166;entryY=0.09;entryDx=0;entryDy=0;entryPerimeter=0;" edge="1" source="L9grCcNbEWZBXhojrE6Y-29" parent="1">
          <mxGeometry relative="1" as="geometry">
            <mxPoint x="690" y="116" as="sourcePoint" />
            <mxPoint x="717" y="220" as="targetPoint" />
          </mxGeometry>
        </mxCell>
        <mxCell id="L9grCcNbEWZBXhojrE6Y-29" value="Status" style="ellipse;whiteSpace=wrap;html=1;align=center;" vertex="1" parent="1">
          <mxGeometry x="720" y="70" width="100" height="50" as="geometry" />
        </mxCell>
        <mxCell id="L9grCcNbEWZBXhojrE6Y-30" value="Patient" style="whiteSpace=wrap;html=1;align=center;" vertex="1" parent="1">
          <mxGeometry x="700" y="570" width="100" height="40" as="geometry" />
        </mxCell>
        <mxCell id="L9grCcNbEWZBXhojrE6Y-31" value="" style="endArrow=none;html=1;rounded=0;entryX=0.166;entryY=0.09;entryDx=0;entryDy=0;entryPerimeter=0;" edge="1" source="L9grCcNbEWZBXhojrE6Y-33" target="L9grCcNbEWZBXhojrE6Y-30" parent="1">
          <mxGeometry relative="1" as="geometry">
            <mxPoint x="690" y="470" as="sourcePoint" />
            <mxPoint x="730" y="680" as="targetPoint" />
          </mxGeometry>
        </mxCell>
        <mxCell id="L9grCcNbEWZBXhojrE6Y-32" value="PatientId" style="ellipse;whiteSpace=wrap;html=1;align=center;fontStyle=4;" vertex="1" parent="1">
          <mxGeometry x="770" y="495" width="100" height="40" as="geometry" />
        </mxCell>
        <mxCell id="L9grCcNbEWZBXhojrE6Y-33" value="Name" style="ellipse;whiteSpace=wrap;html=1;align=center;" vertex="1" parent="1">
          <mxGeometry x="650" y="490" width="100" height="50" as="geometry" />
        </mxCell>
        <mxCell id="L9grCcNbEWZBXhojrE6Y-34" value="" style="endArrow=none;html=1;rounded=0;entryX=0.438;entryY=0.03;entryDx=0;entryDy=0;entryPerimeter=0;exitX=0.25;exitY=0.945;exitDx=0;exitDy=0;exitPerimeter=0;" edge="1" source="L9grCcNbEWZBXhojrE6Y-32" target="L9grCcNbEWZBXhojrE6Y-30" parent="1">
          <mxGeometry relative="1" as="geometry">
            <mxPoint x="717" y="550" as="sourcePoint" />
            <mxPoint x="727" y="584" as="targetPoint" />
          </mxGeometry>
        </mxCell>
        <mxCell id="L9grCcNbEWZBXhojrE6Y-35" value="DOB" style="ellipse;whiteSpace=wrap;html=1;align=center;" vertex="1" parent="1">
          <mxGeometry x="570" y="550" width="100" height="50" as="geometry" />
        </mxCell>
        <mxCell id="L9grCcNbEWZBXhojrE6Y-36" value="" style="endArrow=none;html=1;rounded=0;entryX=0.166;entryY=0.09;entryDx=0;entryDy=0;entryPerimeter=0;" edge="1" source="L9grCcNbEWZBXhojrE6Y-35" parent="1">
          <mxGeometry relative="1" as="geometry">
            <mxPoint x="670" y="500" as="sourcePoint" />
            <mxPoint x="697" y="604" as="targetPoint" />
          </mxGeometry>
        </mxCell>
        <mxCell id="L9grCcNbEWZBXhojrE6Y-37" value="Contactinfo" style="ellipse;whiteSpace=wrap;html=1;align=center;" vertex="1" parent="1">
          <mxGeometry x="640" y="650" width="100" height="50" as="geometry" />
        </mxCell>
        <mxCell id="L9grCcNbEWZBXhojrE6Y-38" value="" style="endArrow=none;html=1;rounded=0;entryX=0.5;entryY=0;entryDx=0;entryDy=0;exitX=0.07;exitY=1.07;exitDx=0;exitDy=0;exitPerimeter=0;" edge="1" source="L9grCcNbEWZBXhojrE6Y-30" target="L9grCcNbEWZBXhojrE6Y-37" parent="1">
          <mxGeometry relative="1" as="geometry">
            <mxPoint x="717" y="550" as="sourcePoint" />
            <mxPoint x="727" y="584" as="targetPoint" />
          </mxGeometry>
        </mxCell>
        <mxCell id="L9grCcNbEWZBXhojrE6Y-39" value="" style="endArrow=none;html=1;rounded=0;entryX=0.5;entryY=0;entryDx=0;entryDy=0;exitX=0.07;exitY=1.07;exitDx=0;exitDy=0;exitPerimeter=0;" edge="1" target="L9grCcNbEWZBXhojrE6Y-40" parent="1">
          <mxGeometry relative="1" as="geometry">
            <mxPoint x="787" y="613" as="sourcePoint" />
            <mxPoint x="807" y="584" as="targetPoint" />
          </mxGeometry>
        </mxCell>
        <mxCell id="L9grCcNbEWZBXhojrE6Y-40" value="Medical History" style="ellipse;whiteSpace=wrap;html=1;align=center;" vertex="1" parent="1">
          <mxGeometry x="760" y="650" width="100" height="50" as="geometry" />
        </mxCell>
        <mxCell id="L9grCcNbEWZBXhojrE6Y-41" value="Inventory" style="whiteSpace=wrap;html=1;align=center;" vertex="1" parent="1">
          <mxGeometry x="145" y="890" width="100" height="40" as="geometry" />
        </mxCell>
        <mxCell id="L9grCcNbEWZBXhojrE6Y-42" value="" style="endArrow=none;html=1;rounded=0;entryX=0.166;entryY=0.09;entryDx=0;entryDy=0;entryPerimeter=0;" edge="1" source="L9grCcNbEWZBXhojrE6Y-44" target="L9grCcNbEWZBXhojrE6Y-41" parent="1">
          <mxGeometry relative="1" as="geometry">
            <mxPoint x="135" y="790" as="sourcePoint" />
            <mxPoint x="175" y="1000" as="targetPoint" />
          </mxGeometry>
        </mxCell>
        <mxCell id="L9grCcNbEWZBXhojrE6Y-43" value="ItemId" style="ellipse;whiteSpace=wrap;html=1;align=center;fontStyle=4;" vertex="1" parent="1">
          <mxGeometry x="215" y="815" width="100" height="40" as="geometry" />
        </mxCell>
        <mxCell id="L9grCcNbEWZBXhojrE6Y-44" value="ItemName" style="ellipse;whiteSpace=wrap;html=1;align=center;" vertex="1" parent="1">
          <mxGeometry x="95" y="810" width="100" height="50" as="geometry" />
        </mxCell>
        <mxCell id="L9grCcNbEWZBXhojrE6Y-45" value="" style="endArrow=none;html=1;rounded=0;entryX=0.438;entryY=0.03;entryDx=0;entryDy=0;entryPerimeter=0;exitX=0.25;exitY=0.945;exitDx=0;exitDy=0;exitPerimeter=0;" edge="1" source="L9grCcNbEWZBXhojrE6Y-43" target="L9grCcNbEWZBXhojrE6Y-41" parent="1">
          <mxGeometry relative="1" as="geometry">
            <mxPoint x="162" y="870" as="sourcePoint" />
            <mxPoint x="172" y="904" as="targetPoint" />
          </mxGeometry>
        </mxCell>
        <mxCell id="L9grCcNbEWZBXhojrE6Y-48" value="Quantity" style="ellipse;whiteSpace=wrap;html=1;align=center;" vertex="1" parent="1">
          <mxGeometry x="85" y="970" width="100" height="50" as="geometry" />
        </mxCell>
        <mxCell id="L9grCcNbEWZBXhojrE6Y-49" value="" style="endArrow=none;html=1;rounded=0;entryX=0.5;entryY=0;entryDx=0;entryDy=0;exitX=0.07;exitY=1.07;exitDx=0;exitDy=0;exitPerimeter=0;" edge="1" source="L9grCcNbEWZBXhojrE6Y-41" target="L9grCcNbEWZBXhojrE6Y-48" parent="1">
          <mxGeometry relative="1" as="geometry">
            <mxPoint x="162" y="870" as="sourcePoint" />
            <mxPoint x="172" y="904" as="targetPoint" />
          </mxGeometry>
        </mxCell>
        <mxCell id="L9grCcNbEWZBXhojrE6Y-50" value="" style="endArrow=none;html=1;rounded=0;entryX=0.5;entryY=0;entryDx=0;entryDy=0;" edge="1" target="L9grCcNbEWZBXhojrE6Y-51" parent="1" source="L9grCcNbEWZBXhojrE6Y-41">
          <mxGeometry relative="1" as="geometry">
            <mxPoint x="232" y="933" as="sourcePoint" />
            <mxPoint x="252" y="904" as="targetPoint" />
          </mxGeometry>
        </mxCell>
        <mxCell id="L9grCcNbEWZBXhojrE6Y-51" value="Expiry_Date" style="ellipse;whiteSpace=wrap;html=1;align=center;" vertex="1" parent="1">
          <mxGeometry x="205" y="970" width="100" height="50" as="geometry" />
        </mxCell>
        <mxCell id="L9grCcNbEWZBXhojrE6Y-52" value="Medicalreport" style="whiteSpace=wrap;html=1;align=center;" vertex="1" parent="1">
          <mxGeometry x="630" y="880" width="100" height="40" as="geometry" />
        </mxCell>
        <mxCell id="L9grCcNbEWZBXhojrE6Y-53" value="" style="endArrow=none;html=1;rounded=0;entryX=0.166;entryY=0.09;entryDx=0;entryDy=0;entryPerimeter=0;" edge="1" source="L9grCcNbEWZBXhojrE6Y-55" target="L9grCcNbEWZBXhojrE6Y-52" parent="1">
          <mxGeometry relative="1" as="geometry">
            <mxPoint x="620" y="780" as="sourcePoint" />
            <mxPoint x="660" y="990" as="targetPoint" />
          </mxGeometry>
        </mxCell>
        <mxCell id="L9grCcNbEWZBXhojrE6Y-54" value="ReportID" style="ellipse;whiteSpace=wrap;html=1;align=center;fontStyle=4;" vertex="1" parent="1">
          <mxGeometry x="700" y="805" width="100" height="40" as="geometry" />
        </mxCell>
        <mxCell id="L9grCcNbEWZBXhojrE6Y-55" value="PatientID" style="ellipse;whiteSpace=wrap;html=1;align=center;" vertex="1" parent="1">
          <mxGeometry x="580" y="800" width="100" height="50" as="geometry" />
        </mxCell>
        <mxCell id="L9grCcNbEWZBXhojrE6Y-56" value="" style="endArrow=none;html=1;rounded=0;entryX=0.438;entryY=0.03;entryDx=0;entryDy=0;entryPerimeter=0;exitX=0.25;exitY=0.945;exitDx=0;exitDy=0;exitPerimeter=0;" edge="1" source="L9grCcNbEWZBXhojrE6Y-54" target="L9grCcNbEWZBXhojrE6Y-52" parent="1">
          <mxGeometry relative="1" as="geometry">
            <mxPoint x="647" y="860" as="sourcePoint" />
            <mxPoint x="657" y="894" as="targetPoint" />
          </mxGeometry>
        </mxCell>
        <mxCell id="L9grCcNbEWZBXhojrE6Y-57" value="Date" style="ellipse;whiteSpace=wrap;html=1;align=center;" vertex="1" parent="1">
          <mxGeometry x="500" y="860" width="100" height="50" as="geometry" />
        </mxCell>
        <mxCell id="L9grCcNbEWZBXhojrE6Y-58" value="" style="endArrow=none;html=1;rounded=0;entryX=0.166;entryY=0.09;entryDx=0;entryDy=0;entryPerimeter=0;" edge="1" source="L9grCcNbEWZBXhojrE6Y-57" parent="1">
          <mxGeometry relative="1" as="geometry">
            <mxPoint x="600" y="810" as="sourcePoint" />
            <mxPoint x="627" y="914" as="targetPoint" />
          </mxGeometry>
        </mxCell>
        <mxCell id="L9grCcNbEWZBXhojrE6Y-59" value="Report Detail" style="ellipse;whiteSpace=wrap;html=1;align=center;" vertex="1" parent="1">
          <mxGeometry x="570" y="960" width="100" height="50" as="geometry" />
        </mxCell>
        <mxCell id="L9grCcNbEWZBXhojrE6Y-60" value="" style="endArrow=none;html=1;rounded=0;entryX=0.5;entryY=0;entryDx=0;entryDy=0;exitX=0.07;exitY=1.07;exitDx=0;exitDy=0;exitPerimeter=0;" edge="1" source="L9grCcNbEWZBXhojrE6Y-52" target="L9grCcNbEWZBXhojrE6Y-59" parent="1">
          <mxGeometry relative="1" as="geometry">
            <mxPoint x="647" y="860" as="sourcePoint" />
            <mxPoint x="657" y="894" as="targetPoint" />
          </mxGeometry>
        </mxCell>
        <mxCell id="L9grCcNbEWZBXhojrE6Y-61" value="" style="endArrow=none;html=1;rounded=0;entryX=0.5;entryY=0;entryDx=0;entryDy=0;exitX=0.07;exitY=1.07;exitDx=0;exitDy=0;exitPerimeter=0;" edge="1" target="L9grCcNbEWZBXhojrE6Y-62" parent="1">
          <mxGeometry relative="1" as="geometry">
            <mxPoint x="717" y="923" as="sourcePoint" />
            <mxPoint x="737" y="894" as="targetPoint" />
          </mxGeometry>
        </mxCell>
        <mxCell id="L9grCcNbEWZBXhojrE6Y-62" value="DoctorID" style="ellipse;whiteSpace=wrap;html=1;align=center;" vertex="1" parent="1">
          <mxGeometry x="690" y="960" width="100" height="50" as="geometry" />
        </mxCell>
        <mxCell id="L9grCcNbEWZBXhojrE6Y-63" value="Bill" style="whiteSpace=wrap;html=1;align=center;" vertex="1" parent="1">
          <mxGeometry x="170" y="525" width="100" height="40" as="geometry" />
        </mxCell>
        <mxCell id="L9grCcNbEWZBXhojrE6Y-64" value="" style="endArrow=none;html=1;rounded=0;entryX=0.166;entryY=0.09;entryDx=0;entryDy=0;entryPerimeter=0;" edge="1" parent="1" source="L9grCcNbEWZBXhojrE6Y-66" target="L9grCcNbEWZBXhojrE6Y-63">
          <mxGeometry relative="1" as="geometry">
            <mxPoint x="160" y="425" as="sourcePoint" />
            <mxPoint x="200" y="635" as="targetPoint" />
          </mxGeometry>
        </mxCell>
        <mxCell id="L9grCcNbEWZBXhojrE6Y-65" value="BillID" style="ellipse;whiteSpace=wrap;html=1;align=center;fontStyle=4;" vertex="1" parent="1">
          <mxGeometry x="240" y="450" width="100" height="40" as="geometry" />
        </mxCell>
        <mxCell id="L9grCcNbEWZBXhojrE6Y-66" value="PatientID" style="ellipse;whiteSpace=wrap;html=1;align=center;" vertex="1" parent="1">
          <mxGeometry x="120" y="445" width="100" height="50" as="geometry" />
        </mxCell>
        <mxCell id="L9grCcNbEWZBXhojrE6Y-67" value="" style="endArrow=none;html=1;rounded=0;entryX=0.438;entryY=0.03;entryDx=0;entryDy=0;entryPerimeter=0;exitX=0.25;exitY=0.945;exitDx=0;exitDy=0;exitPerimeter=0;" edge="1" parent="1" source="L9grCcNbEWZBXhojrE6Y-65" target="L9grCcNbEWZBXhojrE6Y-63">
          <mxGeometry relative="1" as="geometry">
            <mxPoint x="187" y="505" as="sourcePoint" />
            <mxPoint x="197" y="539" as="targetPoint" />
          </mxGeometry>
        </mxCell>
        <mxCell id="L9grCcNbEWZBXhojrE6Y-68" value="Amount" style="ellipse;whiteSpace=wrap;html=1;align=center;" vertex="1" parent="1">
          <mxGeometry x="40" y="505" width="100" height="50" as="geometry" />
        </mxCell>
        <mxCell id="L9grCcNbEWZBXhojrE6Y-69" value="" style="endArrow=none;html=1;rounded=0;entryX=0.166;entryY=0.09;entryDx=0;entryDy=0;entryPerimeter=0;" edge="1" parent="1" source="L9grCcNbEWZBXhojrE6Y-68">
          <mxGeometry relative="1" as="geometry">
            <mxPoint x="140" y="455" as="sourcePoint" />
            <mxPoint x="167" y="559" as="targetPoint" />
          </mxGeometry>
        </mxCell>
        <mxCell id="L9grCcNbEWZBXhojrE6Y-70" value="date" style="ellipse;whiteSpace=wrap;html=1;align=center;" vertex="1" parent="1">
          <mxGeometry x="110" y="605" width="100" height="50" as="geometry" />
        </mxCell>
        <mxCell id="L9grCcNbEWZBXhojrE6Y-71" value="" style="endArrow=none;html=1;rounded=0;entryX=0.5;entryY=0;entryDx=0;entryDy=0;exitX=0.07;exitY=1.07;exitDx=0;exitDy=0;exitPerimeter=0;" edge="1" parent="1" source="L9grCcNbEWZBXhojrE6Y-63" target="L9grCcNbEWZBXhojrE6Y-70">
          <mxGeometry relative="1" as="geometry">
            <mxPoint x="187" y="505" as="sourcePoint" />
            <mxPoint x="197" y="539" as="targetPoint" />
          </mxGeometry>
        </mxCell>
        <mxCell id="L9grCcNbEWZBXhojrE6Y-72" value="" style="endArrow=none;html=1;rounded=0;entryX=0.5;entryY=0;entryDx=0;entryDy=0;exitX=0.07;exitY=1.07;exitDx=0;exitDy=0;exitPerimeter=0;" edge="1" parent="1" target="L9grCcNbEWZBXhojrE6Y-73">
          <mxGeometry relative="1" as="geometry">
            <mxPoint x="257" y="568" as="sourcePoint" />
            <mxPoint x="277" y="539" as="targetPoint" />
          </mxGeometry>
        </mxCell>
        <mxCell id="L9grCcNbEWZBXhojrE6Y-73" value="Status" style="ellipse;whiteSpace=wrap;html=1;align=center;" vertex="1" parent="1">
          <mxGeometry x="230" y="605" width="100" height="50" as="geometry" />
        </mxCell>
        <mxCell id="L9grCcNbEWZBXhojrE6Y-74" value="has" style="shape=rhombus;perimeter=rhombusPerimeter;whiteSpace=wrap;html=1;align=center;" vertex="1" parent="1">
          <mxGeometry x="480" y="700" width="120" height="60" as="geometry" />
        </mxCell>
        <mxCell id="L9grCcNbEWZBXhojrE6Y-75" value="Prepares" style="shape=rhombus;perimeter=rhombusPerimeter;whiteSpace=wrap;html=1;align=center;" vertex="1" parent="1">
          <mxGeometry x="85" y="330" width="120" height="60" as="geometry" />
        </mxCell>
        <mxCell id="L9grCcNbEWZBXhojrE6Y-76" value="" style="edgeStyle=entityRelationEdgeStyle;fontSize=12;html=1;endArrow=ERoneToMany;rounded=0;entryX=0.5;entryY=0;entryDx=0;entryDy=0;exitX=0.124;exitY=1.03;exitDx=0;exitDy=0;exitPerimeter=0;" edge="1" parent="1" source="L9grCcNbEWZBXhojrE6Y-1" target="L9grCcNbEWZBXhojrE6Y-75">
          <mxGeometry width="100" height="100" relative="1" as="geometry">
            <mxPoint x="180" y="240" as="sourcePoint" />
            <mxPoint x="280" y="140" as="targetPoint" />
          </mxGeometry>
        </mxCell>
        <mxCell id="L9grCcNbEWZBXhojrE6Y-77" value="" style="edgeStyle=entityRelationEdgeStyle;fontSize=12;html=1;endArrow=ERoneToMany;rounded=0;entryX=0;entryY=0.5;entryDx=0;entryDy=0;" edge="1" parent="1" target="L9grCcNbEWZBXhojrE6Y-75">
          <mxGeometry width="100" height="100" relative="1" as="geometry">
            <mxPoint x="210" y="530" as="sourcePoint" />
            <mxPoint x="460" y="580" as="targetPoint" />
          </mxGeometry>
        </mxCell>
        <mxCell id="L9grCcNbEWZBXhojrE6Y-82" value="" style="edgeStyle=orthogonalEdgeStyle;rounded=0;orthogonalLoop=1;jettySize=auto;html=1;" edge="1" parent="1" source="L9grCcNbEWZBXhojrE6Y-78" target="L9grCcNbEWZBXhojrE6Y-73">
          <mxGeometry relative="1" as="geometry" />
        </mxCell>
        <mxCell id="L9grCcNbEWZBXhojrE6Y-78" value="Receives" style="shape=rhombus;perimeter=rhombusPerimeter;whiteSpace=wrap;html=1;align=center;" vertex="1" parent="1">
          <mxGeometry x="370" y="560" width="120" height="60" as="geometry" />
        </mxCell>
        <mxCell id="L9grCcNbEWZBXhojrE6Y-79" value="" style="edgeStyle=entityRelationEdgeStyle;fontSize=12;html=1;endArrow=ERoneToMany;rounded=0;entryX=0;entryY=1;entryDx=0;entryDy=0;exitX=1;exitY=0.75;exitDx=0;exitDy=0;" edge="1" parent="1" source="L9grCcNbEWZBXhojrE6Y-1" target="L9grCcNbEWZBXhojrE6Y-15">
          <mxGeometry width="100" height="100" relative="1" as="geometry">
            <mxPoint x="507" y="318" as="sourcePoint" />
            <mxPoint x="513" y="380" as="targetPoint" />
            <Array as="points">
              <mxPoint x="732" y="308" />
              <mxPoint x="593" y="390" />
              <mxPoint x="583" y="330" />
              <mxPoint x="603" y="340" />
              <mxPoint x="573" y="349" />
              <mxPoint x="593" y="370" />
            </Array>
          </mxGeometry>
        </mxCell>
        <mxCell id="L9grCcNbEWZBXhojrE6Y-80" value="" style="edgeStyle=entityRelationEdgeStyle;fontSize=12;html=1;endArrow=ERoneToMany;rounded=0;exitX=0.832;exitY=0.643;exitDx=0;exitDy=0;exitPerimeter=0;entryX=0;entryY=0.75;entryDx=0;entryDy=0;" edge="1" parent="1" source="L9grCcNbEWZBXhojrE6Y-15" target="L9grCcNbEWZBXhojrE6Y-16">
          <mxGeometry width="100" height="100" relative="1" as="geometry">
            <mxPoint x="390" y="250" as="sourcePoint" />
            <mxPoint x="570" y="310" as="targetPoint" />
            <Array as="points">
              <mxPoint x="540" y="240" />
              <mxPoint x="742" y="318" />
              <mxPoint x="570" y="330" />
              <mxPoint x="603" y="400" />
              <mxPoint x="593" y="340" />
              <mxPoint x="613" y="350" />
              <mxPoint x="583" y="359" />
              <mxPoint x="603" y="380" />
            </Array>
          </mxGeometry>
        </mxCell>
        <mxCell id="L9grCcNbEWZBXhojrE6Y-81" value="" style="edgeStyle=entityRelationEdgeStyle;fontSize=12;html=1;endArrow=ERoneToMany;rounded=0;entryX=1;entryY=0.75;entryDx=0;entryDy=0;exitX=0;exitY=0;exitDx=0;exitDy=0;" edge="1" parent="1" source="L9grCcNbEWZBXhojrE6Y-78" target="L9grCcNbEWZBXhojrE6Y-63">
          <mxGeometry width="100" height="100" relative="1" as="geometry">
            <mxPoint x="540" y="520" as="sourcePoint" />
            <mxPoint x="400" y="525" as="targetPoint" />
            <Array as="points">
              <mxPoint x="602" y="598" />
              <mxPoint x="500" y="563" />
              <mxPoint x="463" y="680" />
              <mxPoint x="453" y="620" />
              <mxPoint x="473" y="630" />
              <mxPoint x="443" y="639" />
              <mxPoint x="463" y="660" />
            </Array>
          </mxGeometry>
        </mxCell>
        <mxCell id="L9grCcNbEWZBXhojrE6Y-83" value="" style="edgeStyle=entityRelationEdgeStyle;fontSize=12;html=1;endArrow=ERoneToMany;rounded=0;entryX=1;entryY=0.5;entryDx=0;entryDy=0;exitX=0;exitY=0.75;exitDx=0;exitDy=0;" edge="1" parent="1" source="L9grCcNbEWZBXhojrE6Y-30" target="L9grCcNbEWZBXhojrE6Y-78">
          <mxGeometry width="100" height="100" relative="1" as="geometry">
            <mxPoint x="490" y="670" as="sourcePoint" />
            <mxPoint x="700" y="650" as="targetPoint" />
            <Array as="points">
              <mxPoint x="680" y="700" />
              <mxPoint x="742" y="398" />
              <mxPoint x="500" y="430" />
              <mxPoint x="603" y="480" />
              <mxPoint x="593" y="420" />
              <mxPoint x="613" y="430" />
              <mxPoint x="583" y="439" />
              <mxPoint x="603" y="460" />
            </Array>
          </mxGeometry>
        </mxCell>
        <mxCell id="L9grCcNbEWZBXhojrE6Y-84" value="prepares" style="shape=rhombus;perimeter=rhombusPerimeter;whiteSpace=wrap;html=1;align=center;" vertex="1" parent="1">
          <mxGeometry x="320" y="700" width="120" height="60" as="geometry" />
        </mxCell>
        <mxCell id="L9grCcNbEWZBXhojrE6Y-85" value="checks" style="shape=rhombus;perimeter=rhombusPerimeter;whiteSpace=wrap;html=1;align=center;" vertex="1" parent="1">
          <mxGeometry x="160" y="710" width="120" height="60" as="geometry" />
        </mxCell>
        <mxCell id="L9grCcNbEWZBXhojrE6Y-86" value="" style="edgeStyle=entityRelationEdgeStyle;fontSize=12;html=1;endArrow=ERmany;startArrow=ERmany;rounded=0;exitX=0;exitY=0.5;exitDx=0;exitDy=0;" edge="1" parent="1" source="L9grCcNbEWZBXhojrE6Y-85">
          <mxGeometry width="100" height="100" relative="1" as="geometry">
            <mxPoint x="280" y="680" as="sourcePoint" />
            <mxPoint x="280" y="250" as="targetPoint" />
            <Array as="points">
              <mxPoint x="110" y="460" />
              <mxPoint x="20" y="490" />
              <mxPoint x="40" y="540" />
              <mxPoint x="10" y="420" />
              <mxPoint x="240" y="210" />
            </Array>
          </mxGeometry>
        </mxCell>
        <mxCell id="L9grCcNbEWZBXhojrE6Y-87" value="" style="edgeStyle=entityRelationEdgeStyle;fontSize=12;html=1;endArrow=ERmany;startArrow=ERmany;rounded=0;exitX=0;exitY=0.5;exitDx=0;exitDy=0;entryX=0.5;entryY=1;entryDx=0;entryDy=0;" edge="1" parent="1" target="L9grCcNbEWZBXhojrE6Y-85">
          <mxGeometry width="100" height="100" relative="1" as="geometry">
            <mxPoint x="185" y="890" as="sourcePoint" />
            <mxPoint x="305" y="400" as="targetPoint" />
            <Array as="points">
              <mxPoint x="135" y="610" />
              <mxPoint x="45" y="640" />
              <mxPoint x="220" y="760" />
              <mxPoint x="65" y="690" />
              <mxPoint x="35" y="570" />
              <mxPoint x="265" y="360" />
            </Array>
          </mxGeometry>
        </mxCell>
        <mxCell id="L9grCcNbEWZBXhojrE6Y-88" value="" style="edgeStyle=entityRelationEdgeStyle;fontSize=12;html=1;endArrow=ERoneToMany;rounded=0;exitX=0.5;exitY=1;exitDx=0;exitDy=0;" edge="1" parent="1" source="L9grCcNbEWZBXhojrE6Y-1" target="L9grCcNbEWZBXhojrE6Y-84">
          <mxGeometry width="100" height="100" relative="1" as="geometry">
            <mxPoint x="380" y="700" as="sourcePoint" />
            <mxPoint x="490" y="650" as="targetPoint" />
            <Array as="points">
              <mxPoint x="582" y="723" />
              <mxPoint x="480" y="688" />
              <mxPoint x="443" y="805" />
              <mxPoint x="433" y="745" />
              <mxPoint x="453" y="755" />
              <mxPoint x="423" y="764" />
              <mxPoint x="443" y="785" />
            </Array>
          </mxGeometry>
        </mxCell>
        <mxCell id="L9grCcNbEWZBXhojrE6Y-89" value="" style="edgeStyle=entityRelationEdgeStyle;fontSize=12;html=1;endArrow=ERoneToMany;rounded=0;entryX=0;entryY=0;entryDx=0;entryDy=0;exitX=0;exitY=0;exitDx=0;exitDy=0;" edge="1" parent="1" target="L9grCcNbEWZBXhojrE6Y-52">
          <mxGeometry width="100" height="100" relative="1" as="geometry">
            <mxPoint x="395" y="755" as="sourcePoint" />
            <mxPoint x="345" y="305" as="targetPoint" />
            <Array as="points">
              <mxPoint x="597" y="778" />
              <mxPoint x="495" y="743" />
              <mxPoint x="458" y="860" />
              <mxPoint x="448" y="800" />
              <mxPoint x="468" y="810" />
              <mxPoint x="438" y="819" />
              <mxPoint x="458" y="840" />
            </Array>
          </mxGeometry>
        </mxCell>
        <mxCell id="L9grCcNbEWZBXhojrE6Y-91" value="" style="edgeStyle=entityRelationEdgeStyle;fontSize=12;html=1;endArrow=ERoneToMany;rounded=0;entryX=0;entryY=0;entryDx=0;entryDy=0;exitX=1;exitY=1;exitDx=0;exitDy=0;" edge="1" parent="1" source="L9grCcNbEWZBXhojrE6Y-74">
          <mxGeometry width="100" height="100" relative="1" as="geometry">
            <mxPoint x="405" y="765" as="sourcePoint" />
            <mxPoint x="640" y="890" as="targetPoint" />
            <Array as="points">
              <mxPoint x="607" y="788" />
              <mxPoint x="505" y="753" />
              <mxPoint x="468" y="870" />
              <mxPoint x="458" y="810" />
              <mxPoint x="478" y="820" />
              <mxPoint x="448" y="829" />
              <mxPoint x="468" y="850" />
            </Array>
          </mxGeometry>
        </mxCell>
        <mxCell id="L9grCcNbEWZBXhojrE6Y-92" value="" style="edgeStyle=entityRelationEdgeStyle;fontSize=12;html=1;endArrow=ERoneToMany;rounded=0;entryX=0;entryY=0;entryDx=0;entryDy=0;exitX=0.5;exitY=1;exitDx=0;exitDy=0;" edge="1" parent="1" source="L9grCcNbEWZBXhojrE6Y-30">
          <mxGeometry width="100" height="100" relative="1" as="geometry">
            <mxPoint x="500" y="570" as="sourcePoint" />
            <mxPoint x="570" y="715" as="targetPoint" />
            <Array as="points">
              <mxPoint x="537" y="613" />
              <mxPoint x="435" y="578" />
              <mxPoint x="398" y="695" />
              <mxPoint x="388" y="635" />
              <mxPoint x="408" y="645" />
              <mxPoint x="378" y="654" />
              <mxPoint x="398" y="675" />
            </Array>
          </mxGeometry>
        </mxCell>
        <mxCell id="L9grCcNbEWZBXhojrE6Y-93" value="&lt;font style=&quot;font-size: 18px;&quot;&gt;E-R Diagram for HMS&amp;nbsp;&lt;/font&gt;&lt;div&gt;&lt;font size=&quot;3&quot;&gt;By DIpesh SHrestha&lt;/font&gt;&lt;/div&gt;" style="whiteSpace=wrap;html=1;" vertex="1" parent="1">
          <mxGeometry x="310" y="20" width="240" height="60" as="geometry" />
        </mxCell>
      </root>
    </mxGraphModel>
  </diagram>
</mxfile>
